# xmcd
#
# Track frame offsets:
#	150
#	40190
#	72617
#	115812
#	154230
#	201450
#	245192
#	282242
#	341415
#	347242
#
# Disc length: 4650 seconds
#
# Revision: 2
# Processed by: cddbd v1.5.2PL0 Copyright (c) Steve Scherf et al.
# Submitted via: EasyCDDAExtractor 12.0.1.1
#
DISCID=a312280a
DTITLE=Harper Lee - To Kill A Mockingbird [CD11 of 11)
DYEAR=2006
DGENRE=Audiobook
TTITLE0=Twenty Eight
TTITLE1=The band played the national anthem
TTITLE2=We had not gone
TTITLE3=Atticus came out of Jem's room
TTITLE4=Twenty Nine
TTITLE5=Thirty
TTITLE6=Mr. Tate rocked on his heels
TTITLE7=Thirty One
TTITLE8=Advertisement 1
TTITLE9=Advertisement 2
EXTD=YEAR: 2006
EXTT0=
EXTT1=
EXTT2=
EXTT3=
EXTT4=
EXTT5=
EXTT6=
EXTT7=
EXTT8=
EXTT9=
PLAYORDER=
